<svg width="58" height="26" viewBox="0 0 58 26" fill="none" xmlns="http://www.w3.org/2000/svg">
<path fill-rule="evenodd" clip-rule="evenodd" d="M12.9919 23.2669C14.1035 22.5731 15.0377 21.7263 15.8281 20.8445C16.3941 22.0069 17.5297 22.8003 18.734 22.8003C19.662 22.8003 20.59 22.3336 21.228 21.4586C21.46 22.2753 22.04 22.8003 23.026 22.8003C23.7659 22.8003 25.379 22.0408 26.8416 20.9155L26.6799 21.7503C26.6219 21.9836 26.6219 22.1586 26.6219 22.2753C26.6799 22.6253 26.9119 22.8003 27.2599 22.8003C27.9559 22.8003 28.9419 22.1586 29.1739 21.1086L29.5219 19.6503C29.9279 17.7836 32.6539 14.9836 33.4079 14.9836C33.4659 14.9836 33.5819 15.0419 33.5819 15.1586C33.6049 15.3438 33.4726 15.6944 33.2793 16.2068C32.9855 16.9854 32.5507 18.1375 32.3059 19.6503C32.1899 20.1169 32.1899 20.5836 32.2479 20.9336C32.3639 22.0419 33.0019 22.8003 34.2199 22.8003C35.2622 22.8003 37.5221 21.9054 39.106 20.1157C39.2254 21.0872 39.4297 21.9135 39.7299 22.4503C39.8459 22.6836 40.1359 22.7419 40.4259 22.7419C40.7739 22.7419 41.2379 22.6253 41.7599 22.3336C42.9779 21.6919 44.5439 20.1753 46.0519 17.9586C46.2839 18.0169 46.4579 18.0169 46.6319 18.0169C47.2337 18.0169 47.9063 17.8033 48.5308 17.4254C48.2713 18.2136 48.1701 19.0187 48.256 19.7669C48.488 21.5169 49.938 22.8586 51.504 22.8586C52.374 22.8586 53.302 22.3336 53.94 21.5169C54.172 22.6253 54.868 23.7919 56.608 24.4919C56.724 24.5503 56.8399 24.5503 56.956 24.5503C57.304 24.5503 57.536 24.3169 57.478 24.0253C57.478 23.9086 57.4199 23.7336 57.246 23.6169C56.8399 23.2669 56.376 22.6253 56.26 21.6336C56.202 21.1669 56.202 20.5836 56.492 20.0003C56.84 18.4253 56.898 17.9586 56.898 17.7836C56.84 17.3753 56.55 17.2003 56.202 17.2003C55.506 17.2003 54.52 17.9003 54.288 18.8919C53.8819 20.4086 52.838 21.4003 52.142 21.4003C51.272 21.4003 50.808 20.4669 50.692 19.4753C50.402 17.0253 51.91 14.0503 54.172 14.0503C54.81 14.0503 55.564 14.2836 55.622 14.9836C55.6932 15.6288 55.3047 15.7894 55.0079 15.9121C54.8217 15.9891 54.6716 16.0512 54.694 16.2086C54.752 16.6753 55.506 16.7919 56.028 16.7919C56.4919 16.7919 58 16.4419 57.768 14.7503C57.594 13.4086 56.144 12.7669 54.52 12.7669C52.5813 12.7669 50.9313 13.7542 49.8077 15.1203C49.6523 15.2126 49.4884 15.3774 49.2999 15.5669C48.9519 15.9753 48.2559 16.3836 47.3859 16.3836C47.2699 16.3836 47.0379 16.3253 47.0379 16.3253C47.6179 15.2169 48.0239 14.0503 48.0239 13.0586C48.0239 11.4253 47.0379 10.6086 45.9359 10.6086C44.5439 10.6086 43.0939 11.8336 43.0939 14.2836C43.0939 15.7419 43.6739 16.9086 44.6599 17.5503C43.4999 19.4169 41.9339 20.9919 41.7019 20.9919C41.6218 20.9919 41.597 20.9085 41.5703 20.8185C41.5582 20.7781 41.5459 20.7364 41.5279 20.7003C41.3539 20.0586 41.1799 18.7753 41.1799 18.0169C41.1799 16.6169 41.4119 15.2169 41.9339 13.7586C41.9919 13.5836 42.0499 13.4086 42.0499 13.2919C42.0499 12.8836 41.7599 12.7086 41.4119 12.7086C40.7159 12.7086 39.6139 13.5253 39.3239 14.4003C39.0919 15.2169 38.9759 16.3836 38.9759 17.7836C38.9759 18.0404 38.98 18.2951 38.9884 18.5458C37.6043 20.4225 35.8962 21.0503 35.3799 21.0503C34.7419 21.0503 34.6259 20.4669 34.7419 20.2336C35.1479 18.5419 35.6699 16.6169 36.1339 15.2753C36.3659 14.6336 36.4819 14.0503 36.4239 13.7003C36.3079 13.0586 35.9019 12.7669 35.3219 12.7669C33.9299 12.7669 31.7259 14.1669 30.2759 16.0919L30.7399 13.9919C30.7979 13.7586 30.7979 13.5836 30.7979 13.4669C30.7399 13.0586 30.5079 12.8836 30.1599 12.8836C28.5359 12.8836 28.2459 13.7003 28.0719 14.5169C28.0383 14.7196 27.5767 17.1138 27.1941 19.0929C25.9565 20.2353 24.5697 20.9919 24.186 20.9919C23.722 20.9919 23.548 20.6419 23.548 20.3503C23.548 20.1488 23.6632 19.5996 23.7721 19.0806C23.8525 18.698 23.9293 18.3317 23.954 18.1336C24.012 17.9003 24.012 17.7253 24.012 17.6086C23.954 17.2586 23.664 17.0836 23.316 17.0836C22.62 17.0836 21.634 17.7836 21.402 18.7753C21.054 20.2919 20.01 21.2836 19.314 21.2836C18.444 21.2836 17.98 20.3503 17.864 19.4169C17.574 17.3169 18.908 13.9336 21.344 13.9336C22.04 13.9336 22.736 14.1669 22.794 14.8669C22.8642 15.5381 22.5091 15.6958 22.231 15.8195C22.0497 15.9001 21.9011 15.9662 21.924 16.1503C21.982 16.6169 22.736 16.7336 23.2 16.7336C23.722 16.7336 25.172 16.3836 24.94 14.6919C24.766 13.3503 23.374 12.6503 21.692 12.6503C17.7909 12.6503 15.195 16.5309 15.4756 19.6071C14.4849 20.7731 13.4952 21.4742 11.7159 22.3919C10.7299 22.9169 9.56991 23.2086 8.52591 23.2086C5.27792 23.2086 3.71192 20.2336 3.42192 17.6669C2.60992 11.1336 8.40991 2.09193 12.4119 2.09193C13.3399 2.09193 14.1519 2.90859 14.3259 4.19193C14.5579 6.17526 14.4999 7.57526 12.4699 9.26693C12.2379 9.44193 12.1799 9.73359 12.2959 9.90859C12.4699 10.1419 13.0499 10.2003 14.1519 9.61693C16.3559 8.50859 17.1099 6.81693 16.8779 4.83359C16.6459 2.61693 14.7319 0.808594 12.1799 0.808594C10.9039 0.808594 9.56991 1.15859 8.35191 1.91693C3.07392 5.18359 -0.348079 12.5336 0.289921 18.1336C0.521921 19.9419 1.27592 21.8669 2.66792 23.2086C3.59592 24.0836 5.27792 25.1336 7.30791 25.1336C9.51191 25.1336 11.3679 24.3169 12.9919 23.2669ZM45.5879 15.5669C45.0079 14.9253 44.5439 13.9336 44.5439 13.0003C44.5439 12.4753 44.7179 11.8919 45.1239 11.8919C45.4719 11.8919 45.9359 12.4169 45.9359 13.6419C45.9359 14.2836 45.8199 14.9253 45.5879 15.5669Z" fill="#24BECA"/>
</svg>
