<svg width="46" height="46" viewBox="0 0 46 46" fill="none" xmlns="http://www.w3.org/2000/svg">
<path fill-rule="evenodd" clip-rule="evenodd" d="M23 23C23 19.4274 25.8961 16.5312 29.4688 16.5312C33.0414 16.5312 35.9375 19.4274 35.9375 23C35.9375 26.5726 33.0414 29.4688 29.4688 29.4688C25.8961 29.4688 23 26.5726 23 23Z" fill="#1ABCFE"/>
<path fill-rule="evenodd" clip-rule="evenodd" d="M10.0625 35.9375C10.0625 32.3649 12.9587 29.4688 16.5312 29.4688H23V35.9375C23 39.5101 20.1039 42.4062 16.5312 42.4062C12.9587 42.4062 10.0625 39.5101 10.0625 35.9375Z" fill="#0ACF83"/>
<path fill-rule="evenodd" clip-rule="evenodd" d="M23 3.59375V16.5312H29.4688C33.0414 16.5312 35.9375 13.6351 35.9375 10.0625C35.9375 6.48991 33.0414 3.59375 29.4688 3.59375H23Z" fill="#FF7262"/>
<path fill-rule="evenodd" clip-rule="evenodd" d="M10.0625 10.0625C10.0625 13.6351 12.9587 16.5312 16.5312 16.5312H23V3.59375H16.5312C12.9587 3.59375 10.0625 6.48991 10.0625 10.0625Z" fill="#F24E1E"/>
<path fill-rule="evenodd" clip-rule="evenodd" d="M10.0625 23C10.0625 26.5726 12.9587 29.4688 16.5312 29.4688H23V16.5312H16.5312C12.9587 16.5312 10.0625 19.4274 10.0625 23Z" fill="#A259FF"/>
</svg>
