<svg width="183" height="35" viewBox="0 0 183 35" fill="none" xmlns="http://www.w3.org/2000/svg">
<path opacity="0.38" d="M5.93973 0.919999V26H0.695734V0.919999H5.93973ZM11.8161 26V7H16.4901L16.7941 12.7L16.1481 12.092C16.4521 10.8507 16.9334 9.82467 17.5921 9.014C18.2507 8.20333 19.0487 7.608 19.9861 7.228C20.9487 6.82267 22.0001 6.62 23.1401 6.62C24.4574 6.62 25.6227 6.87333 26.6361 7.38C27.6747 7.88667 28.4854 8.65933 29.0681 9.698C29.6761 10.7113 29.9801 11.9907 29.9801 13.536V26H24.7741V15.018C24.7741 13.3967 24.4574 12.282 23.8241 11.674C23.1907 11.0407 22.3674 10.724 21.3541 10.724C20.6447 10.724 19.9481 10.9013 19.2641 11.256C18.6054 11.5853 18.0607 12.13 17.6301 12.89C17.2247 13.65 17.0221 14.6633 17.0221 15.93V26H11.8161ZM42.9434 26.38C41.0181 26.38 39.2574 26.038 37.6614 25.354C36.0908 24.67 34.8114 23.7073 33.8234 22.466L36.8254 19.426C37.4334 20.338 38.2441 21.0853 39.2574 21.668C40.2708 22.2507 41.4741 22.542 42.8674 22.542C43.8554 22.542 44.6408 22.4027 45.2234 22.124C45.8314 21.82 46.1354 21.3513 46.1354 20.718C46.1354 20.3127 45.9961 19.9707 45.7174 19.692C45.4388 19.388 44.8814 19.1473 44.0454 18.97L40.7014 18.286C38.4974 17.83 36.9268 17.146 35.9894 16.234C35.0774 15.2967 34.6214 14.0933 34.6214 12.624C34.6214 11.5853 34.9254 10.61 35.5334 9.698C36.1668 8.786 37.1041 8.05133 38.3454 7.494C39.5868 6.91133 41.1321 6.62 42.9814 6.62C44.8814 6.62 46.5281 6.924 47.9214 7.532C49.3401 8.11467 50.4548 8.98867 51.2654 10.154L48.1494 13.194C47.5921 12.3073 46.8574 11.636 45.9454 11.18C45.0588 10.6987 44.1214 10.458 43.1334 10.458C42.4241 10.458 41.8161 10.534 41.3094 10.686C40.8028 10.838 40.4228 11.0533 40.1694 11.332C39.9161 11.5853 39.7894 11.9147 39.7894 12.32C39.7894 12.7253 39.9668 13.08 40.3214 13.384C40.6761 13.6627 41.3221 13.9033 42.2594 14.106L46.1354 14.904C48.0101 15.284 49.3528 15.93 50.1634 16.842C50.9741 17.7287 51.3794 18.8053 51.3794 20.072C51.3794 21.288 51.0501 22.3773 50.3914 23.34C49.7581 24.2773 48.8081 25.0247 47.5414 25.582C46.3001 26.114 44.7674 26.38 42.9434 26.38ZM62.2569 1.186V19.806C62.2569 20.718 62.4849 21.3893 62.9409 21.82C63.4223 22.2253 64.0683 22.428 64.8789 22.428C65.5123 22.428 66.0696 22.3393 66.5509 22.162C67.0323 21.9593 67.4629 21.6933 67.8429 21.364L68.6789 24.822C68.0709 25.3033 67.3109 25.6833 66.3989 25.962C65.4869 26.2407 64.5243 26.38 63.5109 26.38C62.2443 26.38 61.1169 26.19 60.1289 25.81C59.1663 25.43 58.4063 24.822 57.8489 23.986C57.3169 23.15 57.0509 22.0353 57.0509 20.642V2.63L62.2569 1.186ZM68.3369 7V10.876H53.5549V7H68.3369ZM82.8746 13.878C82.8746 12.7887 82.5579 11.94 81.9246 11.332C81.3166 10.724 80.5059 10.42 79.4926 10.42C78.5553 10.42 77.7319 10.6607 77.0226 11.142C76.3133 11.6233 75.7939 12.4213 75.4646 13.536L71.0186 12.168C71.4493 10.496 72.3866 9.15333 73.8306 8.14C75.2999 7.12667 77.2633 6.62 79.7206 6.62C81.3926 6.62 82.8493 6.886 84.0906 7.418C85.3319 7.92467 86.2946 8.69733 86.9786 9.736C87.6879 10.7747 88.0426 12.0793 88.0426 13.65V21.364C88.0426 22.3267 88.4986 22.808 89.4106 22.808C89.8413 22.808 90.2466 22.7447 90.6266 22.618L90.3226 25.848C89.6639 26.1773 88.8406 26.342 87.8526 26.342C86.9659 26.342 86.1679 26.19 85.4586 25.886C84.7493 25.582 84.1919 25.126 83.7866 24.518C83.3813 23.8847 83.1786 23.0993 83.1786 22.162V22.01L84.0906 21.858C83.9386 22.8207 83.5206 23.644 82.8366 24.328C82.1526 24.9867 81.3166 25.4933 80.3286 25.848C79.3659 26.2027 78.3653 26.38 77.3266 26.38C76.0346 26.38 74.9199 26.19 73.9826 25.81C73.0453 25.4047 72.3233 24.822 71.8166 24.062C71.3099 23.302 71.0566 22.3647 71.0566 21.25C71.0566 19.8313 71.5126 18.6787 72.4246 17.792C73.3366 16.88 74.6413 16.2593 76.3386 15.93L83.4826 14.486L83.4446 17.716L78.8846 18.628C78.0233 18.8053 77.3646 19.046 76.9086 19.35C76.4779 19.6287 76.2626 20.0973 76.2626 20.756C76.2626 21.3893 76.4906 21.8707 76.9466 22.2C77.4279 22.5293 77.9979 22.694 78.6566 22.694C79.1886 22.694 79.7079 22.6307 80.2146 22.504C80.7213 22.3773 81.1773 22.1747 81.5826 21.896C81.9879 21.6173 82.3046 21.2373 82.5326 20.756C82.7606 20.2747 82.8746 19.692 82.8746 19.008V13.878ZM111.531 2.478L112.139 6.202C112.038 6.202 111.924 6.202 111.797 6.202C111.696 6.17667 111.582 6.164 111.455 6.164C110.29 6.164 109.416 6.43 108.833 6.962C108.251 7.46867 107.959 8.178 107.959 9.09L105.831 8.216C105.831 7.20267 106.034 6.26533 106.439 5.404C106.845 4.51733 107.44 3.808 108.225 3.276C109.036 2.744 109.999 2.478 111.113 2.478C111.164 2.478 111.227 2.478 111.303 2.478C111.379 2.478 111.455 2.478 111.531 2.478ZM105.299 22.428C107.351 22.428 108.935 22.8713 110.049 23.758C111.164 24.6447 111.721 25.886 111.721 27.482C111.721 28.926 111.303 30.142 110.467 31.13C109.631 32.1433 108.453 32.9033 106.933 33.41C105.439 33.9167 103.703 34.17 101.727 34.17C98.4593 34.17 96.0653 33.714 94.5453 32.802C93.0507 31.89 92.3033 30.6993 92.3033 29.23C92.3033 28.1913 92.696 27.3173 93.4813 26.608C94.292 25.8987 95.622 25.506 97.4713 25.43L97.2813 26.038C95.964 25.81 94.9507 25.3793 94.2413 24.746C93.5573 24.0873 93.2153 23.188 93.2153 22.048C93.2153 20.8827 93.6587 19.9327 94.5453 19.198C95.4573 18.438 96.686 17.9947 98.2313 17.868L100.511 18.932H99.9793C98.89 19.008 98.1173 19.236 97.6613 19.616C97.2307 19.9707 97.0153 20.376 97.0153 20.832C97.0153 21.364 97.218 21.7693 97.6233 22.048C98.054 22.3013 98.662 22.428 99.4473 22.428H105.299ZM101.765 30.598C103.083 30.598 104.159 30.484 104.995 30.256C105.857 30.028 106.49 29.7367 106.895 29.382C107.326 29.0273 107.541 28.6347 107.541 28.204C107.541 27.7227 107.351 27.33 106.971 27.026C106.591 26.7473 105.907 26.608 104.919 26.608H98.4973C97.8893 26.608 97.3827 26.76 96.9773 27.064C96.5973 27.368 96.4073 27.786 96.4073 28.318C96.4073 29.0273 96.876 29.5847 97.8133 29.99C98.776 30.3953 100.093 30.598 101.765 30.598ZM101.803 6.62C103.577 6.62 105.109 6.886 106.401 7.418C107.719 7.92467 108.719 8.65933 109.403 9.622C110.113 10.5847 110.467 11.7373 110.467 13.08C110.467 14.3973 110.113 15.5373 109.403 16.5C108.719 17.4627 107.719 18.21 106.401 18.742C105.109 19.2487 103.577 19.502 101.803 19.502C98.9913 19.502 96.838 18.932 95.3433 17.792C93.874 16.6267 93.1393 15.056 93.1393 13.08C93.1393 11.7373 93.4813 10.5847 94.1653 9.622C94.8747 8.65933 95.8753 7.92467 97.1673 7.418C98.4593 6.886 100.005 6.62 101.803 6.62ZM101.803 9.888C100.79 9.888 99.954 10.1667 99.2953 10.724C98.6367 11.2813 98.3073 12.054 98.3073 13.042C98.3073 14.03 98.6367 14.8153 99.2953 15.398C99.954 15.9553 100.79 16.234 101.803 16.234C102.817 16.234 103.64 15.9553 104.273 15.398C104.932 14.8153 105.261 14.03 105.261 13.042C105.261 12.054 104.932 11.2813 104.273 10.724C103.64 10.1667 102.817 9.888 101.803 9.888ZM114.869 26V7H119.391L119.733 10.724C120.239 9.40667 120.974 8.39333 121.937 7.684C122.925 6.97467 124.153 6.62 125.623 6.62C126.053 6.62 126.446 6.658 126.801 6.734C127.155 6.81 127.447 6.91133 127.675 7.038L127.067 11.408C126.813 11.3067 126.497 11.2307 126.117 11.18C125.762 11.1293 125.293 11.104 124.711 11.104C123.951 11.104 123.216 11.294 122.507 11.674C121.797 12.0287 121.215 12.586 120.759 13.346C120.303 14.0807 120.075 15.018 120.075 16.158V26H114.869ZM141.396 13.878C141.396 12.7887 141.079 11.94 140.446 11.332C139.838 10.724 139.027 10.42 138.014 10.42C137.077 10.42 136.253 10.6607 135.544 11.142C134.835 11.6233 134.315 12.4213 133.986 13.536L129.54 12.168C129.971 10.496 130.908 9.15333 132.352 8.14C133.821 7.12667 135.785 6.62 138.242 6.62C139.914 6.62 141.371 6.886 142.612 7.418C143.853 7.92467 144.816 8.69733 145.5 9.736C146.209 10.7747 146.564 12.0793 146.564 13.65V21.364C146.564 22.3267 147.02 22.808 147.932 22.808C148.363 22.808 148.768 22.7447 149.148 22.618L148.844 25.848C148.185 26.1773 147.362 26.342 146.374 26.342C145.487 26.342 144.689 26.19 143.98 25.886C143.271 25.582 142.713 25.126 142.308 24.518C141.903 23.8847 141.7 23.0993 141.7 22.162V22.01L142.612 21.858C142.46 22.8207 142.042 23.644 141.358 24.328C140.674 24.9867 139.838 25.4933 138.85 25.848C137.887 26.2027 136.887 26.38 135.848 26.38C134.556 26.38 133.441 26.19 132.504 25.81C131.567 25.4047 130.845 24.822 130.338 24.062C129.831 23.302 129.578 22.3647 129.578 21.25C129.578 19.8313 130.034 18.6787 130.946 17.792C131.858 16.88 133.163 16.2593 134.86 15.93L142.004 14.486L141.966 17.716L137.406 18.628C136.545 18.8053 135.886 19.046 135.43 19.35C134.999 19.6287 134.784 20.0973 134.784 20.756C134.784 21.3893 135.012 21.8707 135.468 22.2C135.949 22.5293 136.519 22.694 137.178 22.694C137.71 22.694 138.229 22.6307 138.736 22.504C139.243 22.3773 139.699 22.1747 140.104 21.896C140.509 21.6173 140.826 21.2373 141.054 20.756C141.282 20.2747 141.396 19.692 141.396 19.008V13.878ZM152.386 26V7H157.06L157.25 10.42C157.884 9.15333 158.745 8.20333 159.834 7.57C160.949 6.93667 162.178 6.62 163.52 6.62C164.888 6.62 166.117 6.93667 167.206 7.57C168.321 8.20333 169.157 9.14067 169.714 10.382C170.12 9.546 170.664 8.84933 171.348 8.292C172.032 7.73467 172.792 7.31667 173.628 7.038C174.464 6.75933 175.313 6.62 176.174 6.62C177.416 6.62 178.543 6.87333 179.556 7.38C180.595 7.88667 181.418 8.64667 182.026 9.66C182.634 10.6733 182.938 11.9653 182.938 13.536V26H177.732V14.562C177.732 13.1687 177.428 12.1807 176.82 11.598C176.212 11.0153 175.427 10.724 174.464 10.724C173.704 10.724 172.995 10.914 172.336 11.294C171.703 11.674 171.196 12.244 170.816 13.004C170.462 13.7387 170.284 14.6633 170.284 15.778V26H165.078V14.562C165.078 13.1687 164.762 12.1807 164.128 11.598C163.52 11.0153 162.735 10.724 161.772 10.724C161.114 10.724 160.455 10.9013 159.796 11.256C159.163 11.6107 158.631 12.168 158.2 12.928C157.795 13.688 157.592 14.6887 157.592 15.93V26H152.386Z" fill="#E6E8EB"/>
</svg>
